<?xml version="1.0" encoding="UTF-8" standalone="no" ?>
<!DOCTYPE svg PUBLIC "-//W3C//DTD SVG 1.1//EN" "http://www.w3.org/Graphics/SVG/1.1/DTD/svg11.dtd">
<svg xmlns="http://www.w3.org/2000/svg" xmlns:xlink="http://www.w3.org/1999/xlink" version="1.1" width="1280" height="1024" viewBox="0 0 1280 1024" xml:space="preserve">
<desc>Created with Fabric.js 3.6.3</desc>
<defs>
</defs>
<g transform="matrix(1.9662058371735787 0 0 1.9662058371735787 640.2456813819576 512.1966205837173)" id="background-logo"  >
<rect style="stroke: none; stroke-width: 1; stroke-dasharray: none; stroke-linecap: butt; stroke-dashoffset: 0; stroke-linejoin: miter; stroke-miterlimit: 4; fill: #fafafa; fill-rule: nonzero; opacity: 1;"  paint-order="stroke"  x="-325" y="-260" rx="0" ry="0" width="650" height="520" />
</g>
<g transform="matrix(1.9699870022450665 0 0 1.9699870022450665 640.2456813819576 409.4367525627914)" id="logo-logo"  >
<g style=""  paint-order="stroke"   >
		<g transform="matrix(1.4335869658398237 0 0 1.4335869658398241 0 0)"  >
<g style=""  paint-order="stroke"   >
		<g transform="matrix(1 0 0 1 0 0)"  >
<linearGradient id="SVGID_1_502941" gradientUnits="userSpaceOnUse" gradientTransform="matrix(1 0 0 1 0 0)"  x1="0" y1="0" x2="0" y2="197">
<stop offset="0%" style="stop-color:rgb(248,77,158);stop-opacity: 1"/>
<stop offset="100%" style="stop-color:rgb(255,116,117);stop-opacity: 1"/>
</linearGradient>
<path style="stroke: none; stroke-width: 1; stroke-dasharray: none; stroke-linecap: butt; stroke-dashoffset: 0; stroke-linejoin: miter; stroke-miterlimit: 4; fill: url(#SVGID_1_502941); fill-rule: nonzero; opacity: 1;"  paint-order="stroke"  transform=" translate(-100, -98)" d="M 15.78 125.3 l 0.72 24.22 l 19.27 10.37 L 50 184.51 H 81.55 L 102.91 196 l 18.63 -11.49 H 150 l 15.78 -27.3 l 20.64 -12.73 l -0.65 -21.86 L 200 98 L 184.22 70.7 l -0.72 -24.22 L 164.23 36.12 L 150 11.49 H 118.45 L 97.09 0 L 78.47 11.49 H 50 L 34.22 38.78 L 13.58 51.52 l 0.65 21.85 L 0 98 Z M 198.29 98 l -12.61 21.81 l -1.36 -46 Z M 20.37 147.13 l -0.43 -14.64 L 32 153.39 Z M 50.85 183 l -12.6 -21.81 L 78.81 183 Z m 51.93 8.42 l -12.91 -6.94 H 114 Z M 149.15 183 H 123.93 l 39.19 -24.18 Z m 33.26 -40.71 L 169.93 150 L 182 129.11 Z m -2.78 -93.45 l 0.44 14.64 L 168 42.61 Z M 149.15 13 l 12.61 21.81 L 121.19 13 Z M 97.22 4.55 l 12.91 6.94 H 86 Z M 50.85 13 H 76.07 L 36.88 37.15 Z m 32.73 0 h 29.3 l 52.63 28.3 l 14.65 25.35 l 1.77 59.69 l -14.65 25.35 L 116.43 183 H 87.12 l -52.63 -28.3 L 19.84 129.38 L 18.07 69.69 L 32.72 44.34 Z M 30.06 46 L 18 66.88 l -0.39 -13.2 Z M 14.32 76.18 l 1.36 46 L 1.71 98 Z" stroke-linecap="round" />
</g>
</g>
</g>
		<g transform="matrix(0.9961649124487456 0 0 0.9961649124487456 -16.32737037111491 54.61657621860837)"  >
<g style=""  paint-order="stroke"   >
</g>
</g>
</g>
</g>
<g transform="matrix(1.9699870022450665 0 0 1.9699870022450665 647.2637600774557 793.2591075032835)" id="text-logo-path"  >
<path style="stroke: none; stroke-width: 1; stroke-dasharray: none; stroke-linecap: butt; stroke-dashoffset: 0; stroke-linejoin: miter; stroke-miterlimit: 10; fill: rgb(254,110,124); fill-rule: nonzero; opacity: 1;"  paint-order="stroke"  transform=" translate(-278.485, 30.725)" d="M 5.75 -2.12 L 5.75 -17.89 L 5.75 -24.38 Q 6.42 -32.69 9.24 -36.55 L 9.24 -36.55 Q 11.58 -40.08 15.36 -42.16 L 15.36 -42.16 Q 17.85 -43.75 22.45 -43.86 L 22.45 -43.86 Q 25.42 -43.86 28.46 -42.75 Q 31.51 -41.64 33.18 -39.78 Q 34.85 -37.93 36.55 -34.21 L 36.55 -34.21 Q 37.48 -36.59 40.45 -39.78 L 40.45 -39.78 Q 41.9 -41.01 44.2 -42.19 L 44.2 -42.19 Q 45.76 -43.2 51.43 -43.86 L 51.43 -43.86 Q 55.66 -43.86 59.56 -41.75 Q 63.46 -39.63 65.03 -35.79 Q 66.61 -31.95 66.61 -24.34 L 66.61 -24.34 L 66.61 -2.12 L 61.27 -2.12 L 61.27 -24.34 Q 61.27 -30.88 60.34 -33.32 Q 59.41 -35.77 57.15 -37.28 Q 54.88 -38.78 51.69 -38.78 L 51.69 -38.78 Q 45.68 -38.37 41.41 -32.95 L 41.41 -32.95 Q 39.74 -30.65 38.89 -22.75 L 38.89 -22.75 L 38.89 -2.12 L 33.66 -2.12 L 33.66 -22.97 Q 33.66 -30.32 32.03 -32.97 Q 30.39 -35.63 28.13 -37.2 Q 25.87 -38.78 22.49 -38.78 L 22.49 -38.78 Q 18.85 -38.78 16.24 -36.92 Q 13.62 -35.07 12.13 -31.38 Q 10.65 -27.68 10.95 -19.37 L 10.95 -19.37 L 10.95 -2.12 L 5.75 -2.12 Z M 96.82 -44.83 L 96.82 -44.83 Q 106.21 -44.83 112.4 -38.04 L 112.4 -38.04 Q 118.01 -31.8 118.01 -23.3 L 118.01 -23.3 Q 118.01 -14.81 112.07 -8.44 Q 106.13 -2.08 96.82 -2.08 L 96.82 -2.08 Q 87.47 -2.08 81.55 -8.44 Q 75.63 -14.81 75.63 -23.3 L 75.63 -23.3 Q 75.63 -31.77 81.23 -38 L 81.23 -38 Q 87.43 -44.83 96.82 -44.83 Z M 96.82 -39.71 L 96.82 -39.71 Q 90.32 -39.71 85.65 -34.88 Q 80.97 -30.06 80.97 -23.23 L 80.97 -23.23 Q 80.97 -18.81 83.11 -14.97 Q 85.24 -11.13 88.88 -9.07 Q 92.51 -7.01 96.82 -7.01 L 96.82 -7.01 Q 101.2 -7.01 104.82 -9.07 Q 108.43 -11.13 110.55 -14.97 Q 112.66 -18.81 112.66 -23.23 L 112.66 -23.23 Q 112.66 -30.06 107.99 -34.88 Q 103.31 -39.71 96.82 -39.71 Z M 142.54 -2.04 L 123.8 -42.75 L 129.36 -42.75 L 142.98 -13.14 L 156.49 -42.75 L 162.09 -42.75 L 143.46 -2.04 L 142.54 -2.04 Z M 171.89 -59.56 L 171.89 -59.56 Q 173.67 -59.56 174.95 -58.3 Q 176.23 -57.04 176.23 -55.26 L 176.23 -55.26 Q 176.23 -53.47 174.95 -52.19 Q 173.67 -50.91 171.89 -50.91 L 171.89 -50.91 Q 170.11 -50.91 168.85 -52.19 Q 167.59 -53.47 167.59 -55.26 L 167.59 -55.26 Q 167.59 -57.04 168.85 -58.3 Q 170.11 -59.56 171.89 -59.56 Z M 169.29 -2.12 L 169.29 -42.82 L 174.53 -42.82 L 174.53 -2.12 L 169.29 -2.12 Z M 219.61 -16.59 L 219.61 -16.59 L 223.99 -14.25 Q 221.88 -9.98 219.02 -7.38 Q 216.16 -4.79 212.6 -3.43 Q 209.04 -2.08 204.55 -2.08 L 204.55 -2.08 Q 194.6 -2.08 189 -8.59 Q 183.39 -15.1 183.39 -23.3 L 183.39 -23.3 Q 183.39 -31.06 188.14 -37.11 L 188.14 -37.11 Q 194.16 -44.83 204.29 -44.83 L 204.29 -44.83 Q 214.64 -44.83 220.88 -36.92 L 220.88 -36.92 Q 225.29 -31.36 225.33 -23.04 L 225.33 -23.04 L 188.78 -23.04 Q 188.92 -15.92 193.3 -11.37 Q 197.68 -6.83 204.1 -6.83 L 204.1 -6.83 Q 207.22 -6.83 210.15 -7.92 Q 213.08 -9.02 215.14 -10.8 Q 217.2 -12.58 219.61 -16.59 Z M 189.33 -27.54 L 219.61 -27.54 Q 218.57 -31.73 216.57 -34.23 Q 214.57 -36.74 211.26 -38.28 Q 207.96 -39.82 204.32 -39.82 L 204.32 -39.82 Q 198.35 -39.82 194.04 -35.96 L 194.04 -35.96 Q 190.93 -33.14 189.33 -27.54 L 189.33 -27.54 Z M 255.54 -39.34 L 255.54 -39.34 L 252.2 -35.85 Q 247.96 -39.93 243.99 -39.93 L 243.99 -39.93 Q 241.43 -39.93 239.62 -38.26 Q 237.8 -36.59 237.8 -34.29 L 237.8 -34.29 Q 237.8 -32.36 239.32 -30.58 L 239.32 -30.58 Q 240.8 -28.69 245.59 -26.24 L 245.59 -26.24 Q 251.45 -23.23 253.53 -20.41 L 253.53 -20.41 Q 255.57 -17.55 255.57 -13.99 L 255.57 -13.99 Q 255.57 -9.02 252.07 -5.55 Q 248.56 -2.08 243.29 -2.08 L 243.29 -2.08 Q 239.76 -2.08 236.55 -3.58 Q 233.34 -5.08 231.27 -7.79 L 231.27 -7.79 L 234.57 -11.54 Q 238.58 -7.01 243.07 -7.01 L 243.07 -7.01 Q 246.18 -7.01 248.39 -9.04 Q 250.6 -11.06 250.6 -13.77 L 250.6 -13.77 Q 250.6 -16.03 249.15 -17.78 L 249.15 -17.78 Q 247.71 -19.52 242.58 -22.15 L 242.58 -22.15 Q 237.05 -24.94 235.09 -27.76 L 235.09 -27.76 Q 233.08 -30.5 233.08 -34.07 L 233.08 -34.07 Q 233.08 -38.71 236.26 -41.77 Q 239.43 -44.83 244.22 -44.83 L 244.22 -44.83 Q 249.82 -44.83 255.54 -39.34 Z M 299.03 -16.59 L 299.03 -16.59 L 303.41 -14.25 Q 301.29 -9.98 298.43 -7.38 Q 295.58 -4.79 292.01 -3.43 Q 288.45 -2.08 283.96 -2.08 L 283.96 -2.08 Q 274.02 -2.08 268.41 -8.59 Q 262.81 -15.1 262.81 -23.3 L 262.81 -23.3 Q 262.81 -31.06 267.56 -37.11 L 267.56 -37.11 Q 273.57 -44.83 283.7 -44.83 L 283.7 -44.83 Q 294.05 -44.83 300.29 -36.92 L 300.29 -36.92 Q 304.71 -31.36 304.74 -23.04 L 304.74 -23.04 L 268.19 -23.04 Q 268.34 -15.92 272.72 -11.37 Q 277.1 -6.83 283.52 -6.83 L 283.52 -6.83 Q 286.63 -6.83 289.56 -7.92 Q 292.5 -9.02 294.56 -10.8 Q 296.62 -12.58 299.03 -16.59 Z M 268.75 -27.54 L 299.03 -27.54 Q 297.99 -31.73 295.98 -34.23 Q 293.98 -36.74 290.68 -38.28 Q 287.38 -39.82 283.74 -39.82 L 283.74 -39.82 Q 277.76 -39.82 273.46 -35.96 L 273.46 -35.96 Q 270.34 -33.14 268.75 -27.54 L 268.75 -27.54 Z M 333.72 -44.83 L 333.72 -44.83 Q 343.11 -44.83 349.31 -38.04 L 349.31 -38.04 Q 355.03 -31.84 355.03 -23.3 L 355.03 -23.3 Q 355.1 -2.23 355.03 -1.89 L 355.03 -1.89 Q 351.46 -1.89 349.5 -1.89 L 349.5 -1.89 Q 349.5 -2.15 349.5 -11.13 L 349.5 -11.13 Q 345.15 -3.04 333.72 -2.08 L 333.72 -2.08 Q 324.37 -2.08 318.45 -8.44 Q 312.54 -14.81 312.54 -23.3 L 312.54 -23.3 Q 312.54 -31.77 318.14 -38 L 318.14 -38 Q 324.34 -44.83 333.72 -44.83 Z M 333.72 -39.71 L 333.72 -39.71 Q 327.23 -39.71 322.55 -34.88 Q 317.88 -30.06 317.88 -23.23 L 317.88 -23.23 Q 317.88 -18.81 320.27 -14.73 Q 322.67 -10.65 328.38 -7.83 L 328.38 -7.83 Q 342.71 -4.64 348.75 -20.86 L 348.75 -20.86 Q 349.09 -26.05 347.64 -30.8 L 347.64 -30.8 Q 346.6 -32.95 344.78 -34.88 L 344.78 -34.88 Q 340.22 -39.71 333.72 -39.71 Z M 363.19 -2.19 L 363.19 -20.74 L 363.19 -25.64 Q 363.78 -29.32 364.9 -31.62 L 364.9 -31.62 Q 367.49 -38 371.87 -40.97 Q 376.25 -43.94 379.15 -43.94 L 379.15 -43.94 Q 381.3 -43.94 383.75 -42.53 L 383.75 -42.53 L 381.04 -38.15 Q 377.59 -39.41 374.19 -36.11 Q 370.8 -32.8 369.5 -28.91 L 369.5 -28.91 Q 368.53 -25.46 368.53 -15.96 L 368.53 -15.96 L 368.53 -2.19 L 363.19 -2.19 Z M 426.31 -35.33 L 426.31 -35.33 L 422.16 -32.73 Q 416.78 -39.93 407.46 -39.93 L 407.46 -39.93 Q 400 -39.93 395.08 -35.14 Q 390.17 -30.36 390.17 -23.49 L 390.17 -23.49 Q 390.17 -19.04 392.43 -15.08 Q 394.7 -11.13 398.63 -8.98 Q 402.56 -6.83 407.46 -6.83 L 407.46 -6.83 Q 416.48 -6.83 422.16 -13.95 L 422.16 -13.95 L 426.31 -11.24 Q 423.38 -6.87 418.46 -4.47 Q 413.55 -2.08 407.24 -2.08 L 407.24 -2.08 Q 397.63 -2.08 391.26 -8.2 Q 384.9 -14.32 384.9 -23.08 L 384.9 -23.08 Q 384.9 -29.02 387.89 -34.08 Q 390.87 -39.15 396.05 -41.99 Q 401.23 -44.83 407.68 -44.83 L 407.68 -44.83 Q 411.69 -44.83 415.46 -43.6 Q 419.22 -42.38 421.86 -40.39 Q 424.49 -38.41 426.31 -35.33 Z M 436.29 -2.04 L 436.29 -58.48 L 441.56 -58.48 L 441.56 -35.44 Q 444.72 -39.63 448.52 -41.71 Q 452.33 -43.79 456.78 -43.79 L 456.78 -43.79 Q 461.38 -43.79 464.91 -41.47 Q 468.43 -39.15 470.1 -35.25 Q 471.77 -31.36 471.77 -22.97 L 471.77 -22.97 L 471.77 -2.04 L 466.58 -2.04 L 466.58 -21.45 Q 466.58 -28.5 465.98 -30.88 L 465.98 -30.88 Q 465.02 -34.92 462.46 -36.94 Q 459.9 -38.96 455.74 -38.96 L 455.74 -38.96 Q 450.99 -38.96 447.22 -35.83 Q 443.46 -32.69 442.27 -28.05 L 442.27 -28.05 Q 441.56 -25.09 441.56 -16.96 L 441.56 -16.96 L 441.56 -2.04 L 436.29 -2.04 Z M 517.19 -16.59 L 517.19 -16.59 L 521.57 -14.25 Q 519.46 -9.98 516.6 -7.38 Q 513.74 -4.79 510.18 -3.43 Q 506.62 -2.08 502.13 -2.08 L 502.13 -2.08 Q 492.18 -2.08 486.58 -8.59 Q 480.97 -15.1 480.97 -23.3 L 480.97 -23.3 Q 480.97 -31.06 485.72 -37.11 L 485.72 -37.11 Q 491.74 -44.83 501.87 -44.83 L 501.87 -44.83 Q 512.22 -44.83 518.46 -36.92 L 518.46 -36.92 Q 522.87 -31.36 522.91 -23.04 L 522.91 -23.04 L 486.36 -23.04 Q 486.5 -15.92 490.88 -11.37 Q 495.26 -6.83 501.68 -6.83 L 501.68 -6.83 Q 504.8 -6.83 507.73 -7.92 Q 510.66 -9.02 512.72 -10.8 Q 514.78 -12.58 517.19 -16.59 Z M 486.91 -27.54 L 517.19 -27.54 Q 516.15 -31.73 514.15 -34.23 Q 512.15 -36.74 508.84 -38.28 Q 505.54 -39.82 501.9 -39.82 L 501.9 -39.82 Q 495.93 -39.82 491.63 -35.96 L 491.63 -35.96 Q 488.51 -33.14 486.91 -27.54 L 486.91 -27.54 Z M 530.66 -2.19 L 530.66 -20.74 L 530.66 -25.64 Q 531.26 -29.32 532.37 -31.62 L 532.37 -31.62 Q 534.97 -38 539.35 -40.97 Q 543.73 -43.94 546.62 -43.94 L 546.62 -43.94 Q 548.77 -43.94 551.22 -42.53 L 551.22 -42.53 L 548.51 -38.15 Q 545.06 -39.41 541.67 -36.11 Q 538.27 -32.8 536.97 -28.91 L 536.97 -28.91 Q 536.01 -25.46 536.01 -15.96 L 536.01 -15.96 L 536.01 -2.19 L 530.66 -2.19 Z" stroke-linecap="round" />
</g>
<g transform="matrix(1.9699870022450665 0 0 1.9699870022450665 640.2456813819576 397.945122805712)" id="tagline-3a0f327a-aafa-4e44-aa87-18cbd55f8865-logo-path"  >
<linearGradient id="SVGID_4_502944" gradientUnits="userSpaceOnUse" gradientTransform="matrix(1 0 0 1 17.909999999999997 -132.78)"  x1="0" y1="0" x2="0" y2="219">
<stop offset="0%" style="stop-color:rgb(248,77,158);stop-opacity: 1"/>
<stop offset="100%" style="stop-color:rgb(255,116,117);stop-opacity: 1"/>
</linearGradient>
<path style="stroke: none; stroke-width: 1; stroke-dasharray: none; stroke-linecap: butt; stroke-dashoffset: 0; stroke-linejoin: miter; stroke-miterlimit: 4; fill: url(#SVGID_4_502944); fill-rule: nonzero; opacity: 1;"  paint-order="stroke"  transform=" translate(-92.215, 66.39)" d="M 30.72 0 L 17.91 0 L 17.91 -132.78 L 35.15 -132.78 L 92.26 -12.91 L 149.37 -132.78 L 166.52 -132.78 L 166.52 0 L 153.8 0 L 153.8 -111.77 L 99.42 0 L 85.1 0 L 30.72 -111.77 L 30.72 0 Z" stroke-linecap="round" />
</g>
</svg>